<svg width="490" height="490" xmlns="http://www.w3.org/2000/svg">

 <g>
  <title>background</title>
  <rect fill="none" id="canvas_background" height="402" width="582" y="-1" x="-1"/>
 </g>
 <g>
  <title>Layer 1</title>
  <g id="svg_1">
   <g id="svg_2">
    <path id="svg_3" fill="#12326b" d="m324.982,341.589l-48.249,0c-11.843,0 -21.444,-9.601 -21.444,-21.444s9.601,-21.444 21.444,-21.444l26.805,0l0,-26.805c0,-11.843 9.601,-21.444 21.444,-21.444c11.843,0 21.444,9.601 21.444,21.444l0,48.249c0,11.843 -9.601,21.444 -21.444,21.444z"/>
    <path id="svg_4" fill="#12326b" d="m233.475,320.149c0,11.84 -9.6,21.44 -21.45,21.44l-70.76,0c-11.84,0 -21.44,-9.6 -21.44,-21.44c0,-11.85 9.6,-21.45 21.44,-21.45l70.76,0c11.85,0 21.45,9.6 21.45,21.45z"/>
    <path id="svg_5" fill="#12326b" d="m74.531,341.589l-48.25,0c-11.843,0 -21.444,-9.601 -21.444,-21.444l0,-48.249c0,-11.843 9.601,-21.444 21.444,-21.444s21.444,9.601 21.444,21.444l0,26.805l26.805,0c11.843,0 21.444,9.601 21.444,21.444s-9.6,21.444 -21.443,21.444z"/>
    <path id="svg_6" fill="#12326b" d="m26.281,226.606c-11.843,0 -21.444,-9.601 -21.444,-21.444l0,-68.734c0,-11.843 9.601,-21.444 21.444,-21.444s21.444,9.601 21.444,21.444l0,68.734c0,11.843 -9.6,21.444 -21.444,21.444z"/>
    <path id="svg_7" fill="#12326b" d="m26.281,91.137c-11.843,0 -21.444,-9.601 -21.444,-21.444l0,-48.249c0,-11.843 9.601,-21.444 21.444,-21.444l48.249,0c11.843,0 21.444,9.601 21.444,21.444s-9.601,21.444 -21.444,21.444l-26.805,0l0,26.805c0,11.843 -9.6,21.444 -21.444,21.444z"/>
    <path id="svg_8" fill="#12326b" d="m209.999,42.888l-68.734,0c-11.843,0 -21.444,-9.601 -21.444,-21.444s9.6,-21.444 21.444,-21.444l68.734,0c11.843,0 21.444,9.601 21.444,21.444s-9.601,21.444 -21.444,21.444z"/>
    <path id="svg_9" fill="#12326b" d="m324.982,91.137c-11.843,0 -21.444,-9.601 -21.444,-21.444l0,-26.805l-26.805,0c-11.843,0 -21.444,-9.601 -21.444,-21.444s9.6,-21.444 21.444,-21.444l48.249,0c11.843,0 21.444,9.601 21.444,21.444l0,48.249c0,11.843 -9.601,21.444 -21.444,21.444z"/>
    <path id="svg_10" fill="#12326b" d="m324.982,228.635c-11.843,0 -21.444,-9.601 -21.444,-21.444l0,-70.764c0,-11.843 9.601,-21.444 21.444,-21.444c11.843,0 21.444,9.601 21.444,21.444l0,70.764c0,11.843 -9.601,21.444 -21.444,21.444z"/>
   </g>
   <path id="svg_11" fill="#ef476f" d="m475.178,319.139l-254.255,-177.718c-14.038,-9.812 -33.147,1.22 -31.668,18.284l26.781,309.051c2.045,23.6 33.959,29.361 44.127,7.966l53.281,-112.111c4.139,-8.708 13.226,-13.955 22.838,-13.185l123.731,9.912c23.614,1.891 34.581,-28.628 15.165,-42.199z"/>
   <path id="svg_12" fill="#12326b" d="m233.475,320.149c0,11.84 -9.6,21.44 -21.45,21.44l-25.03,0l-3.72,-42.89l28.75,0c11.85,0 21.45,9.6 21.45,21.45z"/>
   <path id="svg_13" fill="#dd2e57" d="m322.815,354.468c-3.998,2.303 -7.305,5.783 -9.375,10.146l-53.277,112.104c-10.166,21.398 -42.086,15.635 -44.125,-7.965l-26.786,-309.049c-0.741,-8.533 3.673,-15.554 10.014,-19.217l123.549,213.981z"/>
  </g>
 </g>
</svg>