<svg width="923.463" height="732" xmlns="http://www.w3.org/2000/svg">
 <g>
  <title>background</title>
  <rect fill="none" id="canvas_background" height="185.669255" width="233.710056" y="-1" x="-1"/>
 </g>

 <g>
  <title>Layer 1</title>
  <path id="svg_1" d="m128.494,176.017c0,6.005 -4.872,10.875 -10.881,10.875c-6.004,0 -10.876,-4.87 -10.876,-10.875c0,-6.007 4.872,-10.876 10.876,-10.876c6.01,0 10.881,4.868 10.881,10.876z" fill="#FFFFFF"/>
  <path id="svg_2" d="m236.819,242.835c0,5.305 -4.297,9.602 -9.6,9.602c-5.303,0 -9.601,-4.297 -9.601,-9.602c0,-5.297 4.297,-9.599 9.601,-9.599c5.302,0 9.6,4.302 9.6,9.599z" fill="#FFFFFF"/>
  <path id="svg_3" d="m253.5,106.314l0,0c2.368,7.295 8.087,13.015 15.379,15.38l0,0l0,0c-7.292,2.37 -13.011,8.083 -15.379,15.379l0,0l0,0c-2.37,-7.295 -8.089,-13.009 -15.381,-15.379l0,0l0,0c7.292,-2.365 13.011,-8.085 15.381,-15.38l0,0z" fill="#FFFFFF"/>
  <path id="svg_4" d="m117.613,242.075l0,0c2.37,7.292 8.089,13.011 15.385,15.379l0,0l0,0c-7.295,2.368 -13.015,8.089 -15.385,15.381l0,0l0,0c-2.365,-7.292 -8.083,-13.014 -15.379,-15.381l0,0l0,0c7.296,-2.369 13.014,-8.087 15.379,-15.379l0,0z" fill="#FFFFFF"/>
  <g id="svg_26" fill="none">
   <polygon id="svg_27" points="476.0379943847656,718.9810180664062 464.72198486328125,718.9810180664062 522.4320068359375,568.52197265625 544.468994140625,568.52197265625 " fill="#204a93"/>
   <polygon id="svg_28" points="676.1069946289062,718.9810180664062 687.4240112304688,718.9810180664062 629.7139892578125,568.52197265625 607.677001953125,568.52197265625 " fill="#204a93"/>
   <polygon fill="#204a93" id="svg_29" points="476.0379943847656,718.9810180664062 464.72198486328125,718.9810180664062 522.4320068359375,568.52197265625 544.468994140625,568.52197265625 " opacity="0.3"/>
   <polygon fill="#204a93" id="svg_30" points="676.1069946289062,718.9810180664062 687.4240112304688,718.9810180664062 629.7139892578125,568.52197265625 607.677001953125,568.52197265625 " opacity="0.3"/>
   <path id="svg_31" d="m571.358,374.992c25.991,-25.5 66.122,-40.165 99.681,-26.033c41.24,17.365 56.098,70.456 47.948,114.453c-9.742,52.623 -45.779,99.694 -94.031,122.836c-48.259,23.143 -107.522,21.77 -154.659,-3.574c-20.384,-10.961 -40.147,-29.452 -39.784,-52.595c0.298,-19.038 14.749,-35.551 31.831,-43.957c24.747,-12.184 45.142,-4.424 59.048,-29.77c15.717,-28.638 25.981,-57.83 49.966,-81.36z" fill="#204a93"/>
   <polygon id="svg_32" points="436.16400146484375,718.9810180664062 424.8500061035156,718.9810180664062 482.5580139160156,568.52197265625 504.5950012207031,568.52197265625 " fill="#204a93"/>
   <polygon id="svg_33" points="636.2329711914062,718.9810180664062 647.5499877929688,718.9810180664062 589.8400268554688,568.52197265625 567.8040161132812,568.52197265625 " fill="#204a93"/>
  </g>
  <g id="svg_34" fill="#0C0054">
   <path id="svg_36" d="m551.242,296.629c-32.179,45.054 -72.366,84.365 -118.125,115.538c-12.538,8.543 -27.224,16.823 -42.07,13.682c-0.796,0.111 -1.325,3.347 -2.124,3.458c2,8.502 4,17.011 6,25.51c0.307,1.313 0.721,2.771 1.895,3.435c1.171,0.664 3.105,-0.403 2.604,-1.652c28.794,-6.354 56.822,-14.938 84.007,-26.361c27.185,-11.427 52.764,-28.267 70.16,-52.073c16.827,-23.025 7.915,-54.931 -2.347,-81.537z" fill="#000000"/>
   <polygon id="svg_37" points="403.901,691.052 396.623,705.723 359.35,719.981 422.712,719.981 416.176,703.773  " fill="#17A6C4"/>
   <path id="svg_38" d="m522.834,485.271l-106.459,39.103c-17.799,4.414 -29.873,20.947 -28.672,39.25c3.103,47.352 5.288,94.806 8.92,142.099c6.439,-1.039 13.112,-0.907 19.553,-1.949c-0.93,-36.908 1.479,-73.891 8.075,-110.176c2.347,-12.91 11.083,-23.778 23.285,-28.606c21.871,-8.647 97.898,-17.88 120.268,-21.313c-3.12,-9.121 9.029,-31.729 8.019,-41.316c-0.68,-6.412 -23.962,-15.012 -30.065,-17.091c-6.11,-2.079 -18.474,-4.668 -22.924,-0.001z" fill="#000000"/>
   <polygon id="svg_39" points="525.7969970703125,691.052001953125 518.5180053710938,705.7230224609375 481.2439880371094,719.9810180664062 544.6069946289062,719.9810180664062 538.072021484375,703.7730102539062 " fill="#17A6C4"/>
   <path id="svg_40" d="m603.445,508.688l-67.271,16.687c-17.789,4.412 -29.877,20.92 -28.678,39.206c3.105,47.364 5.292,94.835 8.922,142.143c6.44,-1.039 13.115,-0.907 19.555,-1.949c-0.932,-36.908 1.48,-73.891 8.076,-110.176c2.368,-13.057 11.457,-23.938 23.797,-28.809c14.287,-5.634 29.177,-10.873 44.01,-14.766c13.757,-3.614 24.505,-15.063 25.823,-29.225c0.126,-1.375 0.145,-2.751 0,-4.12c-0.675,-6.414 -5.327,-12.236 -11.434,-14.316c-6.108,-2.081 -18.351,0.658 -22.8,5.325z" fill="#000000"/>
   <path stroke="null" id="svg_41" d="m564.394428,285.317662c-21.087552,12.067308 -36.184536,35.857688 -43.236411,61.921356c-7.054336,26.067483 -6.672954,54.24138 -2.458888,81.123204c4.214065,26.88373 12.127126,52.764315 20.013941,78.510448l97.156439,0.958328c7.106007,-34.519843 7.609596,-72.360936 7.49149,-107.858178c-0.097601,-27.607483 -2.689358,-56.269603 -14.894401,-79.951278c-12.205043,-23.680721 -42.76645,-46.894197 -64.072169,-34.70388z" fill="#ef476f"/>
   <path id="svg_42" d="m638.183,342.298c-1.022,-2.391 -2.174,-4.623 -3.396,-6.782c-6.094,9.609 -18.146,14.524 -30.389,11.281c-1.031,-0.271 -1.961,-0.681 -2.908,-1.07c-17.752,43.726 -48.998,81.971 -88.309,108.107c0.791,2.932 1.646,5.852 2.501,8.771c0.665,-0.035 1.345,-0.048 2.052,-0.008c2.765,0.152 5.466,0.425 8.074,0.859c5.687,-0.874 11.767,-0.435 16.896,0.463c1.441,0.25 2.758,0.771 4.014,1.403c38.486,-19.163 71.882,-48.44 96.486,-83.916c8.065,-11.626 0.537,-26.091 -5.021,-39.108z" opacity="0.1"/>
   <path id="svg_43" d="m617.012,308.952c-26.501,64.985 -83.977,116.533 -151.46,135.821c5.414,6.73 14.009,9.985 21.704,13.906c56.889,-7.253 110.126,-35.532 149.775,-76.967c9.782,-10.227 4.607,-25.686 1.151,-39.415c-3.456,-13.724 -10.261,-24.324 -21.17,-33.345z" fill="#000000"/>
   <path id="svg_44" d="m586.669,467.719l-174.275,0l0,-12.592l184.168,0l0,2.697c0,5.466 -4.431,9.895 -9.893,9.895z" fill="#b2b2b2"/>
   <path id="svg_45" d="m499.778,466.719l-172.424,0c-8.03,0 -16.286,-6.511 -18.438,-14.543l-25.236,-94.178c-2.152,-8.03 2.618,-14.545 10.648,-14.545l172.418,0c8.033,0 16.286,6.516 18.441,14.545l25.23,94.178c2.157,8.032 -2.606,14.543 -10.639,14.543z" fill="#e5e5e5"/>
   <path id="svg_46" d="m412.394,406.086c2.417,9.026 -2.939,16.344 -11.96,16.344c-9.025,0 -18.304,-7.317 -20.721,-16.344c-2.417,-9.024 2.939,-16.341 11.96,-16.341c9.025,0 18.302,7.317 20.721,16.341z" fill="#FFFFFF"/>
   <path id="svg_47" d="m554.595,260.597c2.39,11.154 4.772,22.308 7.162,33.466c8.37,2.887 19.255,-0.262 26.726,-5.017c-2.866,-11.942 -4.426,-25.339 -7.294,-37.284c-10.43,-0.613 -19.076,1.574 -26.594,8.835z" fill="#FFADAD"/>
   <path id="svg_48" d="m581.188,251.762c-10.43,-0.613 -19.075,1.574 -26.594,8.834c1.996,9.339 3.996,18.676 5.996,28.019c4.928,-2.656 9.647,-5.59 13.822,-9.052c3.76,-3.119 7.216,-6.695 10.163,-10.621c-1.024,-5.842 -2.064,-11.671 -3.387,-17.18z" opacity="0.2"/>
   <path id="svg_49" d="m534.192,208.197c-1.694,25.058 5.489,50.62 19.98,71.127c11.565,-5.276 24.291,-10.578 34.069,-18.693c9.785,-8.115 17.636,-19.281 19.181,-31.898c1.51,-12.356 -3.512,-25.331 -12.954,-33.448c-9.443,-8.119 -23.021,-11.145 -35.018,-7.798c-11.989,3.344 -24.415,8.288 -25.258,20.71z" fill="#FFADAD"/>
   <polygon stroke="null" id="svg_50" points="638.1118984831119,520.7990112304688 640.1649780273438,485.27099609375 530.8339850653865,485.27099609375 538.2144133147958,510.82598876953125 554.2491243700206,524.3740234375 600.9307354281482,531.6580200195312 " fill="#ef476f"/>
   <path id="svg_51" d="m524.323,215.766c17.519,4.014 36.333,2.141 52.717,-5.244c2.445,5.567 4.286,10.925 6.735,16.492c-0.623,3.377 -0.482,7.941 -1.105,11.316c1.189,-0.16 2.263,0.76 3.452,0.601c0.108,-2.531 2.099,-6.154 3.395,-8.332c1.294,-2.176 4.142,-3.661 6.427,-2.569c1.874,0.895 2.722,3.208 2.488,5.269c-0.23,2.061 -1.331,3.914 -2.497,5.632c-3.579,5.284 -8.014,9.989 -13.088,13.865c1.271,5.791 2.59,12.389 3.855,18.175c8.918,-8.862 17.521,-19.176 23.535,-30.212c6.016,-11.04 8.676,-24.576 4.128,-36.295c-4.042,-10.415 -13.373,-18.194 -23.809,-22.173c-12.759,-4.861 -27.447,-4.431 -39.896,1.178c-12.448,5.601 -21.516,19.519 -26.337,32.297z" fill="#000000"/>
  </g>
  <rect id="svg_52" height="17.553" width="681.986" fill="#b7c1d2" y="467.719" x="173.946"/>
  <polygon id="svg_53" points="173.9459991455078,720.9810180664062 160.48599243164062,720.9810180664062 219.80499267578125,486.27099609375 254.6739959716797,486.27099609375 " fill="#b7c1d2"/>
  <polygon id="svg_54" points="221.039,719.981 207.58,719.981 266.898,485.271 301.762,485.271 " fill="#b7c1d2"/>
  <polygon id="svg_55" points="836.603,719.981 850.058,719.981 790.743,485.271 755.876,485.271 " fill="#b7c1d2"/>
  <polygon id="svg_56" points="789.506,719.981 802.968,719.981 743.651,485.271 708.786,485.271 " fill="#b7c1d2"/>
  <path id="svg_71" d="m235.741,418.184c-2.529,-5.347 -5.526,-10.888 -5.027,-16.78c0.838,-9.903 11.185,-16.996 12.095,-26.894c0.659,-7.157 -3.791,-13.68 -5.651,-20.626c-3.178,-11.873 2.11,-25.518 12.464,-32.147c-3.329,4.557 -3.188,10.887 -1.347,16.22c1.839,5.335 5.146,10.014 7.899,14.941c2.755,4.928 5.019,10.441 4.462,16.054c-0.759,7.62 -6.544,13.99 -7.515,21.585c-0.977,7.653 3.084,15.101 3.223,22.819c0.129,7.35 -3.771,14.579 -9.693,18.853c-9.242,6.668 -8.057,-8.003 -10.91,-14.025z" fill="#FFFFFF" opacity="0.2"/>
  <path id="svg_72" d="m249.985,448.923c-9.581,-3.904 -14.38,-16.601 -9.773,-25.866c4.576,-9.211 16.244,-14.044 18.838,-23.995c2.128,-8.176 -2.785,-16.583 -2.466,-25.025c0.288,-7.497 4.613,-14.139 7.385,-21.106c2.773,-6.971 3.614,-15.939 -1.854,-21.077c10.567,6.108 17.98,17.55 16.813,29.7c-0.792,8.209 -4.74,16.148 -3.771,24.342c0.501,4.238 2.293,8.194 3.506,12.287c1.212,4.094 1.803,8.656 -0.026,12.514c-2.722,5.739 -10.136,8.528 -11.871,14.646c-1.5,5.29 1.932,10.832 1.344,16.301c-0.751,6.971 -11.633,9.927 -18.125,7.279z" fill="#FFFFFF" opacity="0.2"/>
  <g id="svg_73">
   <g id="svg_74">
    <path id="svg_75" d="m280.167,454.335l-25.494,0l0,-31.443l25.494,0c7.138,0 12.939,5.811 12.939,12.949l0,5.553c0.001,7.137 -5.801,12.941 -12.939,12.941zm-21.044,-4.449l21.044,0c4.679,0 8.491,-3.81 8.491,-8.492l0,-5.553c0,-4.684 -3.812,-8.494 -8.491,-8.494l-21.044,0l0,22.539z" fill="#C2C2C2"/>
   </g>
   <path id="svg_76" d="m257.924,467.719l-6.505,0c-10.927,0 -19.787,-8.859 -19.787,-19.787l0,-26.29l46.082,0l0,26.29c-0.001,10.927 -8.86,19.787 -19.79,19.787z" fill="#C2C2C2"/>
   <path id="svg_77" d="m268.601,421.642l0,26.29c0,10.49 -8.166,19.049 -18.482,19.722c0.431,0.029 0.859,0.065 1.3,0.065l6.505,0c10.93,0 19.79,-8.859 19.79,-19.787l0,-26.29l-9.113,0z" opacity="0.2"/>
  </g>
 </g>
</svg>